<?xml version="1.0" standalone="no"?>
<!DOCTYPE svg PUBLIC "-//W3C//DTD SVG 20010904//EN"
 "http://www.w3.org/TR/2001/REC-SVG-20010904/DTD/svg10.dtd">
<svg version="1.0" xmlns="http://www.w3.org/2000/svg"
 width="694.000000pt" height="694.000000pt" viewBox="0 0 694.000000 694.000000"
 preserveAspectRatio="xMidYMid meet">
<metadata>
Created by potrace 1.14, written by Peter Selinger 2001-2017
</metadata>
<g transform="translate(0.000000,694.000000) scale(0.100000,-0.100000)"
fill="#000000" stroke="none">
<path d="M5011 6851 c-7 -5 -29 -7 -47 -5 -25 2 -33 0 -27 -9 4 -7 -1 -6 -11
2 -15 13 -19 13 -27 0 -6 -10 -9 -10 -9 -1 0 6 -4 12 -10 12 -5 0 -9 -3 -9 -7
4 -24 -4 -31 -33 -29 -18 1 -41 -2 -52 -7 -10 -5 -16 -5 -13 0 3 5 -3 9 -13 9
-12 0 -17 -6 -14 -19 2 -13 -1 -17 -11 -13 -7 2 -16 0 -19 -7 -3 -9 -5 -9 -5
0 -1 7 -8 10 -16 7 -8 -4 -12 -10 -9 -16 3 -5 -3 -12 -14 -15 -14 -3 -19 -10
-15 -21 4 -10 2 -13 -5 -8 -6 3 -14 1 -18 -5 -5 -8 -9 -8 -14 1 -6 9 -11 7
-19 -9 -7 -11 -18 -21 -26 -21 -8 0 -14 -5 -13 -12 2 -6 -12 -22 -31 -35 -19
-12 -30 -23 -26 -23 4 0 2 -6 -4 -13 -6 -8 -8 -17 -4 -20 3 -4 1 -7 -7 -7 -10
0 -10 -3 -1 -14 10 -12 8 -13 -11 -8 -21 5 -22 4 -8 -13 8 -10 10 -16 5 -13
-15 9 -38 -7 -41 -27 -5 -32 -14 -46 -26 -39 -7 5 -9 2 -5 -8 8 -21 -3 -30
-20 -17 -7 6 -13 7 -13 2 0 -5 -13 -9 -30 -8 -16 0 -30 3 -30 7 0 5 -5 8 -11
8 -5 0 -8 -4 -5 -9 3 -4 -6 -7 -19 -5 -16 1 -25 -3 -25 -12 0 -8 -10 -14 -26
-14 -14 0 -22 -4 -19 -10 3 -6 -1 -7 -9 -4 -9 3 -13 11 -10 16 4 6 -2 5 -14
-1 -25 -13 -35 -14 -28 -2 12 18 -46 -3 -59 -22 -8 -12 -15 -17 -15 -12 0 6
-5 3 -10 -5 -8 -13 -10 -12 -10 3 0 10 -5 15 -10 12 -6 -4 -8 -9 -6 -13 6 -10
-16 -27 -36 -28 -34 -2 -38 -4 -35 -16 1 -7 -7 -14 -18 -14 -11 -1 -26 -2 -33
-3 -7 -1 -11 -5 -7 -10 6 -11 -30 -25 -44 -17 -12 8 -34 -21 -26 -34 4 -6 3
-10 -2 -9 -19 3 -34 -2 -28 -10 3 -5 -4 -13 -16 -16 -12 -4 -18 -12 -15 -20 3
-9 0 -12 -8 -9 -8 3 -16 -4 -19 -15 -3 -14 -10 -19 -21 -15 -11 4 -14 1 -11
-15 2 -11 1 -20 -3 -20 -23 4 -30 -3 -26 -26 3 -19 0 -25 -12 -25 -10 0 -15
-3 -11 -6 3 -3 -8 -19 -25 -34 -20 -18 -26 -30 -18 -35 7 -4 3 -14 -13 -29
-19 -18 -22 -27 -15 -41 8 -13 7 -16 -1 -11 -6 4 -11 2 -11 -4 0 -6 -6 -8 -12
-4 -7 4 -10 4 -6 -1 4 -4 3 -14 -3 -22 -9 -10 -8 -13 2 -13 11 0 11 -2 -1 -10
-8 -5 -10 -10 -3 -10 15 0 11 -27 -7 -43 -11 -10 -11 -8 0 8 14 20 14 20 -7 2
-17 -15 -19 -24 -13 -52 4 -19 4 -35 0 -35 -5 0 -5 -13 0 -30 5 -17 5 -30 0
-30 -5 0 -5 -13 0 -30 5 -17 5 -30 0 -30 -5 0 -5 -13 0 -30 5 -17 5 -30 0 -30
-5 0 -5 -13 0 -30 5 -17 5 -30 0 -30 -5 0 -5 -13 0 -30 5 -16 5 -30 1 -30 -16
0 2 -51 22 -61 16 -9 17 -13 6 -21 -11 -8 -11 -11 -1 -15 10 -4 10 -8 0 -21
-10 -12 -10 -14 0 -8 8 5 12 0 12 -13 0 -12 7 -21 15 -21 13 0 14 -4 5 -20 -8
-14 -8 -20 0 -20 16 0 36 -22 35 -40 -1 -20 56 -80 69 -73 5 3 6 1 2 -6 -4 -6
-12 -9 -17 -6 -5 4 -9 1 -9 -4 0 -6 5 -11 10 -11 6 0 10 -8 10 -17 0 -9 3 -14
6 -10 7 7 54 -38 54 -53 0 -9 14 -14 32 -11 4 0 5 -8 3 -19 -3 -13 1 -17 11
-13 10 3 14 -2 15 -18 0 -13 3 -19 6 -12 3 10 7 10 18 0 7 -7 11 -15 8 -19 -2
-5 8 -8 23 -8 15 0 33 -8 40 -17 13 -19 35 -24 45 -10 4 5 9 -3 13 -17 4 -17
11 -23 21 -20 8 4 21 1 29 -5 7 -6 16 -8 20 -4 4 4 4 -1 0 -12 -7 -18 -6 -19
11 -5 15 12 17 12 10 1 -6 -11 -3 -13 13 -9 13 4 23 0 26 -8 3 -8 0 -14 -7
-14 -8 0 -6 -4 3 -10 11 -7 11 -10 2 -10 -7 0 -10 -4 -7 -10 3 -5 -1 -10 -11
-10 -11 0 -15 -6 -11 -20 3 -11 2 -20 -2 -20 -4 0 -7 -9 -7 -20 0 -11 4 -20 9
-20 5 0 3 -8 -4 -17 -12 -14 -12 -16 0 -8 10 5 12 4 7 -3 -4 -7 -14 -12 -22
-12 -8 0 -12 -4 -9 -10 3 -5 2 -10 -3 -10 -13 0 -10 -33 3 -42 6 -5 5 -8 -2
-8 -7 0 -13 -5 -13 -11 0 -5 5 -7 11 -3 8 4 8 0 0 -15 -8 -15 -9 -21 -1 -21 6
0 8 -5 4 -12 -4 -6 -7 -41 -6 -77 1 -62 14 -87 36 -74 5 3 6 1 2 -6 -4 -6 -13
-8 -19 -4 -7 4 -7 0 1 -10 8 -9 11 -21 7 -27 -3 -5 -1 -10 5 -10 6 0 8 -5 4
-12 -13 -21 -11 -48 3 -48 13 0 30 -54 25 -74 -2 -5 0 -16 3 -25 5 -12 8 -13
14 -2 7 10 9 10 14 -2 3 -7 1 -20 -5 -28 -8 -11 -8 -9 -4 6 5 17 4 18 -6 5 -7
-9 -20 -15 -28 -15 -8 1 -21 -3 -28 -8 -9 -7 -11 -5 -6 8 6 15 4 16 -13 7 -15
-8 -23 -8 -33 1 -10 10 -12 8 -7 -6 6 -17 6 -17 -17 0 -13 10 -19 21 -14 24 5
3 2 9 -7 12 -9 4 -13 3 -10 -3 3 -6 1 -10 -5 -10 -6 0 -9 -4 -6 -9 3 -5 -3
-11 -14 -14 -11 -3 -23 -1 -26 4 -3 5 -11 9 -17 9 -7 0 -6 -4 3 -10 10 -6 2
-8 -27 -7 -23 1 -45 5 -48 9 -4 3 -19 3 -35 -2 -16 -4 -42 -7 -59 -6 -16 1
-28 -1 -25 -5 6 -11 -28 -27 -45 -21 -10 3 -11 0 -5 -9 6 -11 5 -12 -7 -3 -23
17 -58 14 -69 -5 -5 -10 -6 -22 -2 -27 4 -5 -4 0 -17 11 -14 11 -21 14 -17 8
5 -9 0 -13 -14 -13 -16 0 -20 -4 -16 -16 4 -10 0 -15 -12 -13 -9 1 -26 1 -37
0 -15 -1 -17 -3 -6 -10 17 -11 3 -19 -31 -17 -16 1 -28 -2 -28 -7 0 -4 -6 -5
-12 -1 -9 5 -9 2 1 -9 7 -9 11 -18 7 -18 -3 -1 -9 -2 -13 -3 -16 -3 -33 -18
-29 -25 3 -4 -1 -8 -9 -8 -8 0 -12 5 -8 10 3 5 -4 4 -14 -2 -11 -6 -23 -7 -27
-4 -3 3 -6 1 -6 -5 0 -5 6 -13 13 -15 11 -5 -17 -11 -35 -8 -4 0 -5 -5 -2 -13
3 -7 -2 -16 -11 -20 -9 -3 -13 -11 -9 -17 4 -8 3 -9 -4 -5 -7 4 -12 2 -12 -4
0 -7 -7 -10 -15 -6 -8 3 -14 2 -14 -2 1 -4 1 -16 0 -27 -1 -17 -3 -18 -11 -5
-9 15 -11 14 -14 -12 -1 -7 -7 -12 -14 -11 -7 2 -12 -2 -12 -8 0 -14 -57 -68
-65 -61 -6 6 -8 -12 -5 -45 1 -15 -4 -23 -14 -23 -8 0 -21 -9 -29 -20 -8 -11
-17 -17 -20 -13 -4 3 -7 1 -7 -4 0 -6 6 -14 13 -16 9 -4 9 -6 0 -6 -7 -1 -10
-7 -7 -15 3 -8 0 -17 -7 -22 -7 -4 -10 -3 -6 3 4 6 0 14 -9 17 -8 3 -13 2 -10
-3 3 -5 -14 -8 -39 -8 -24 0 -42 4 -39 9 3 4 0 8 -6 8 -6 0 -8 5 -4 11 5 8 1
8 -14 0 -15 -8 -23 -8 -27 0 -4 6 -13 8 -20 5 -7 -2 -18 1 -25 7 -10 9 -11 9
-5 -2 6 -11 2 -13 -18 -7 -14 3 -29 1 -32 -4 -4 -7 -11 -7 -18 -2 -7 5 -37 8
-67 7 -54 -2 -117 13 -93 22 10 3 10 10 2 25 -7 13 -7 18 -1 14 6 -3 9 2 8 11
-2 10 -9 19 -17 19 -8 1 -17 2 -21 3 -4 0 -3 12 2 26 8 20 6 25 -6 25 -8 0
-12 5 -9 10 3 6 1 10 -5 10 -15 0 -41 26 -33 34 4 3 1 6 -5 6 -7 0 -12 3 -11
8 2 14 -13 52 -21 52 -5 0 -12 9 -15 20 -4 11 -10 18 -15 15 -5 -3 -11 -1 -15
5 -4 6 -10 8 -15 5 -5 -3 -7 4 -5 15 2 11 0 18 -4 16 -10 -6 -41 30 -33 39 4
3 -1 3 -11 -1 -12 -4 -17 -1 -17 10 0 9 -7 16 -16 16 -10 0 -14 6 -10 15 3 10
-3 17 -19 21 -13 3 -23 11 -22 17 1 6 -8 16 -20 22 -13 7 -20 15 -15 19 4 5
-2 7 -13 6 -33 -4 -47 -1 -41 9 6 9 -22 26 -38 22 -5 -1 -4 4 2 12 10 12 9 14
-5 14 -38 0 -56 3 -50 9 3 3 0 12 -6 19 -9 9 -16 10 -25 2 -10 -8 -16 -7 -22
2 -6 11 -9 11 -13 0 -4 -10 -6 -10 -6 -1 -1 6 -8 12 -16 12 -8 0 -15 4 -15 9
0 5 -12 11 -27 13 -18 2 -28 9 -27 19 1 9 -5 16 -12 16 -7 0 -11 -4 -8 -9 8
-12 -10 -10 -24 4 -9 9 -12 9 -12 -1 0 -10 -3 -11 -14 -2 -11 9 -15 9 -19 -1
-4 -10 -6 -10 -6 1 -1 11 -4 11 -16 1 -10 -9 -15 -9 -15 -1 0 6 -3 10 -7 10
-5 -1 -15 -1 -23 0 -13 1 -13 2 0 11 11 7 1 10 -35 11 -27 1 -54 0 -60 -1 -11
-3 -54 -1 -98 4 -15 2 -27 -2 -27 -8 0 -7 -3 -7 -8 -1 -4 6 -14 10 -22 10 -8
0 -18 -4 -22 -10 -5 -7 -8 -7 -8 0 0 9 -19 10 -87 6 -7 -1 -10 -8 -6 -18 4
-10 2 -14 -5 -9 -6 3 -14 2 -17 -4 -5 -8 -11 -7 -21 1 -11 9 -14 9 -14 -1 0
-10 -3 -10 -14 -1 -11 9 -16 9 -21 0 -6 -8 -10 -7 -16 2 -7 11 -10 9 -15 -8
-4 -13 -10 -20 -15 -17 -5 3 -9 1 -9 -4 0 -5 -13 -7 -30 -4 -28 4 -66 -18 -53
-32 10 -10 -7 -7 -29 5 -12 6 -18 7 -14 1 8 -13 -22 -37 -48 -37 -12 0 -20 -6
-18 -13 1 -8 -2 -11 -8 -7 -5 3 -10 -2 -10 -11 0 -16 -1 -16 -15 2 -8 11 -15
14 -15 7 0 -7 -7 -13 -15 -13 -8 0 -14 -6 -12 -12 1 -7 -4 -12 -10 -11 -12 3
-17 -9 -14 -29 0 -4 -9 -5 -20 -3 -17 4 -19 2 -9 -10 14 -17 15 -17 -28 -19
-33 -2 -56 -22 -46 -38 3 -5 2 -8 -3 -7 -21 4 -32 -2 -38 -20 -3 -10 -15 -21
-27 -24 -13 -4 -19 -11 -15 -21 4 -9 3 -15 -1 -13 -4 1 -18 -6 -30 -15 -20
-14 -21 -17 -7 -20 15 -3 15 -6 -5 -30 -12 -16 -28 -28 -37 -28 -10 0 -13 -6
-9 -16 3 -8 2 -12 -4 -9 -6 3 -10 1 -10 -4 0 -6 4 -11 10 -11 5 0 7 -6 4 -14
-3 -8 -13 -12 -25 -9 -10 3 -16 9 -13 14 3 5 2 9 -3 10 -80 5 -140 2 -135 -6
3 -5 -2 -4 -12 4 -14 12 -19 12 -26 2 -4 -8 -10 -9 -14 -3 -3 5 -17 8 -30 7
-18 -2 -27 3 -31 16 -5 15 -10 17 -19 10 -7 -6 -17 -7 -21 -3 -5 4 -5 1 -1 -5
9 -17 -2 -35 -16 -27 -19 12 -78 12 -71 0 4 -6 -1 -5 -11 3 -14 12 -19 12 -26
2 -4 -8 -10 -9 -14 -3 -3 5 -18 8 -33 6 -15 -1 -34 3 -42 9 -8 7 -13 8 -10 2
3 -5 -5 -21 -18 -34 -13 -13 -23 -19 -23 -12 0 8 -5 9 -19 1 -14 -7 -20 -7
-23 2 -2 6 -10 8 -16 4 -9 -5 -12 -439 -12 -1867 l0 -1859 3028 0 c3006 1
3027 1 3003 20 -12 11 -28 17 -34 13 -6 -4 -8 0 -4 10 3 10 2 17 -4 17 -6 0
-7 4 -4 10 4 7 -3 7 -20 0 -14 -5 -24 -7 -22 -2 3 4 -1 13 -9 20 -8 7 -14 9
-14 5 -1 -4 -8 6 -16 22 -8 17 -12 21 -9 10 5 -16 4 -18 -6 -8 -7 7 -21 13
-32 13 -10 0 -15 5 -12 10 3 6 1 10 -5 10 -6 0 -8 4 -5 10 3 6 -1 7 -9 4 -10
-4 -16 -1 -16 9 0 19 -27 30 -34 14 -3 -9 -5 -9 -5 0 -1 7 -8 10 -16 7 -10 -4
-13 0 -10 15 2 11 1 20 -3 20 -20 -3 -32 2 -27 11 3 6 -1 10 -10 10 -10 0 -13
5 -9 13 5 8 2 8 -9 -2 -14 -11 -17 -11 -17 0 0 11 -3 11 -11 -1 -9 -12 -10
-11 -6 8 3 12 1 19 -4 16 -6 -3 -17 0 -26 8 -12 9 -15 9 -9 1 4 -7 2 -13 -4
-13 -6 0 -15 11 -20 26 -8 20 -14 23 -27 16 -12 -7 -22 -3 -40 16 -19 20 -23
22 -23 8 0 -16 -2 -16 -15 -2 -19 19 -19 36 0 36 9 0 12 6 8 17 -4 9 -2 14 3
11 5 -3 21 8 36 23 15 16 24 29 20 29 -4 0 0 5 8 10 12 8 12 10 1 10 -8 0 -2
9 13 21 18 14 24 25 17 33 -13 16 12 49 26 35 7 -7 10 -3 9 13 0 13 -5 26 -11
30 -6 4 -2 8 7 8 10 0 17 3 17 7 -3 20 2 26 11 13 8 -12 10 -11 7 5 -1 11 -6
26 -10 33 -5 7 -3 12 4 12 8 0 7 5 -2 17 -10 12 -10 15 -1 9 7 -4 19 -1 27 8
20 19 20 27 3 37 -7 5 -8 9 -3 9 6 0 11 9 12 20 1 11 -2 18 -7 15 -6 -3 -7 1
-4 9 3 9 11 13 18 9 6 -4 6 -1 -2 9 -10 13 -9 16 8 21 14 4 18 10 13 23 -5 13
-3 15 8 9 12 -8 12 -6 0 8 -7 9 -10 17 -6 17 4 0 2 7 -5 15 -10 12 -9 16 5 21
13 5 14 9 4 15 -10 6 -10 11 2 25 11 14 11 16 0 10 -10 -7 -12 -3 -6 14 6 17
4 21 -6 14 -12 -6 -12 -5 0 9 7 9 10 17 6 17 -4 0 -2 6 4 14 9 10 9 16 1 21
-8 5 -7 11 2 23 7 9 8 13 2 9 -7 -4 -14 2 -17 13 -3 11 -1 18 3 15 7 -4 7 30
1 78 -1 5 -5 5 -11 2 -5 -3 -11 1 -11 9 -1 9 -2 22 -3 29 -1 6 2 18 7 25 7 9
5 11 -8 6 -13 -6 -16 -4 -10 5 4 8 9 26 10 41 2 21 -3 30 -17 33 -14 4 -18 12
-14 31 3 14 0 26 -5 26 -6 0 -7 6 -3 13 6 9 5 9 -8 -1 -13 -11 -15 -7 -14 33
1 25 -2 45 -7 45 -4 0 -5 5 -1 12 5 8 2 9 -9 5 -14 -5 -17 0 -17 29 0 29 -3
35 -16 30 -8 -3 -12 -2 -9 4 3 6 1 10 -5 10 -6 0 -8 5 -5 10 3 6 -1 10 -9 10
-15 0 -21 17 -17 48 1 8 -6 12 -16 10 -10 -2 -18 3 -19 10 -1 6 -2 17 -3 22 0
6 -8 10 -17 10 -10 0 -14 6 -10 15 3 8 2 14 -2 14 -21 -3 -32 3 -32 17 0 9 5
12 13 8 6 -4 4 2 -7 14 -10 12 -22 19 -26 17 -4 -3 -7 3 -6 13 1 11 -6 16 -17
15 -14 -1 -17 4 -14 17 3 13 0 17 -9 13 -9 -3 -14 1 -14 12 0 9 -8 19 -19 22
-10 2 -24 15 -31 29 -7 13 -18 20 -23 17 -6 -4 -8 0 -4 11 4 10 3 15 -3 11 -6
-4 -17 0 -25 9 -11 11 -12 16 -2 19 6 3 2 6 -10 6 -15 1 -23 7 -23 18 0 9 -3
14 -6 10 -8 -8 -34 18 -34 33 0 8 -6 8 -20 0 -18 -10 -24 -7 -21 13 1 7 -15
11 -31 8 -5 0 -7 2 -7 7 4 22 -4 30 -30 28 -17 -1 -28 0 -27 3 5 10 -29 36
-47 37 -9 1 -17 -1 -17 -5 0 -4 -9 -7 -19 -7 -11 0 -18 3 -15 7 11 19 -8 35
-38 31 -17 -3 -28 -1 -25 4 2 5 -1 15 -9 22 -11 10 -14 10 -14 0 0 -10 -2 -10
-9 0 -11 18 -12 18 -38 4 -16 -9 -24 -9 -29 -1 -4 8 -9 7 -15 -2 -7 -12 -9
-12 -9 0 0 11 -3 11 -17 0 -10 -7 -15 -9 -11 -5 4 5 3 16 -4 23 -9 11 -9 17 3
24 12 7 12 9 -1 9 -8 1 -4 5 9 11 13 5 21 15 18 23 -3 8 1 13 11 12 9 0 16 5
15 11 -2 7 6 13 16 13 11 0 23 4 26 10 4 6 -1 7 -12 4 -16 -5 -16 -4 1 10 11
9 23 16 27 16 4 0 10 7 13 16 3 8 2 12 -4 9 -6 -3 -7 1 -4 9 3 9 10 16 15 16
5 0 9 7 9 16 0 8 4 13 10 9 5 -3 16 8 25 24 18 36 19 45 3 35 -7 -5 -8 -3 -4
5 5 7 15 10 23 7 8 -3 11 -1 8 4 -3 6 -2 10 3 10 6 0 8 8 5 19 -3 10 0 22 7
26 8 5 8 10 -1 21 -9 11 -9 14 0 14 7 0 9 5 5 13 -6 9 -4 9 8 -1 14 -11 16
-11 14 0 -1 7 -6 19 -10 27 -7 10 -6 12 4 6 10 -6 12 -4 7 9 -4 10 -3 15 3 11
6 -3 10 -1 10 5 0 6 4 9 9 6 5 -4 8 2 6 11 -1 10 2 24 8 31 6 8 6 12 -1 12
-11 0 -10 45 1 57 4 3 2 12 -4 19 -7 9 -5 14 10 19 18 5 19 14 18 104 -1 55 1
97 4 96 3 -2 4 6 3 18 -1 12 -3 22 -4 22 -7 0 -3 108 3 112 5 3 -2 10 -14 17
-18 9 -24 21 -25 49 -1 20 2 34 7 31 5 -3 9 0 9 5 0 6 -5 11 -11 11 -6 0 -8 9
-4 21 5 13 3 19 -3 15 -5 -3 -15 1 -22 9 -10 12 -10 18 1 32 8 9 9 14 3 10 -7
-4 -15 0 -18 9 -3 8 -2 13 2 10 5 -3 9 1 9 9 0 8 -5 13 -10 12 -5 -1 -14 6
-20 16 -10 14 -9 20 3 27 13 8 12 10 -3 10 -11 0 -21 9 -24 20 -3 11 -10 17
-17 13 -6 -4 -5 1 2 10 8 9 10 22 6 29 -4 7 -4 10 1 6 4 -4 16 -3 26 3 15 7
17 6 13 -5 -6 -15 18 -17 32 -3 4 4 18 4 32 0 16 -4 23 -2 19 4 -4 6 3 8 18 5
15 -2 22 -9 18 -16 -4 -8 -2 -7 7 1 7 6 19 9 28 6 11 -5 13 -2 7 8 -6 11 -5
12 6 1 16 -15 43 -16 33 -1 -4 7 1 7 16 -1 12 -6 24 -9 28 -6 3 3 -1 6 -8 6
-9 0 -7 5 5 14 11 8 26 11 34 8 10 -4 12 -1 6 9 -6 11 -5 12 5 2 11 -10 17
-10 29 0 12 10 13 9 6 -2 -6 -10 -4 -12 4 -7 7 5 10 14 8 21 -4 8 5 12 24 13
16 0 29 -4 29 -11 0 -6 12 4 26 21 21 25 30 30 40 21 11 -9 14 -8 14 1 0 9 4
9 17 -1 13 -11 15 -11 9 -1 -5 8 0 20 13 31 11 10 17 22 13 26 -4 4 3 5 16 2
12 -3 20 -1 16 4 -3 5 0 9 5 9 6 0 11 -5 11 -12 0 -6 3 -8 8 -4 7 7 8 11 11
37 0 5 5 8 10 4 6 -3 15 4 21 15 10 18 14 19 28 8 9 -7 13 -8 9 -2 -3 6 0 11
7 11 8 0 12 -7 8 -15 -3 -10 -1 -13 6 -8 7 4 12 3 12 -2 0 -5 12 -9 27 -8 19
1 28 -4 28 -14 0 -8 8 -14 18 -14 9 1 17 -3 17 -8 0 -6 6 -5 15 2 13 11 15 9
15 -13 0 -17 5 -24 18 -23 9 0 20 5 24 11 4 5 11 -3 17 -18 6 -15 13 -27 16
-27 4 0 3 6 -1 13 -6 9 -4 9 8 -1 12 -9 18 -10 23 -2 5 8 11 8 21 -1 11 -9 14
-8 14 2 0 10 3 10 12 1 7 -7 17 -8 30 -1 14 8 18 6 18 -6 0 -9 5 -13 10 -10 6
3 10 1 10 -5 0 -7 7 -9 16 -6 8 3 12 2 9 -4 -3 -6 -1 -10 4 -10 6 0 11 5 11
11 0 6 6 7 12 2 16 -9 45 -10 81 -1 15 4 25 3 23 -1 -3 -4 10 -7 28 -7 27 1
33 5 30 19 -2 13 1 17 10 14 8 -3 19 0 25 6 8 8 11 8 11 -1 0 -9 5 -10 18 -3
11 6 24 6 32 1 9 -6 17 -5 22 3 6 9 8 9 8 0 0 -7 7 -10 15 -7 8 4 12 10 9 15
-3 5 0 9 6 9 6 0 8 5 4 11 -5 8 -1 8 14 0 14 -7 23 -8 27 -1 4 6 11 7 17 4 6
-4 8 -3 5 2 -3 6 -1 16 4 24 7 13 10 13 18 1 6 -9 11 -10 15 -2 4 6 12 8 18 5
6 -4 9 -3 6 2 -9 13 14 29 39 28 12 -1 20 2 18 6 -6 10 27 26 59 29 8 0 18 10
21 21 4 11 11 18 16 15 5 -3 6 1 3 10 -5 11 -2 14 10 9 11 -4 16 -2 14 7 -2 8
3 13 10 11 6 -1 11 4 10 10 -2 7 2 12 9 11 7 -2 10 3 7 11 -3 8 0 17 7 22 8 4
10 3 5 -4 -4 -7 -3 -12 2 -12 5 0 12 10 15 21 4 16 11 20 24 15 9 -4 14 -4 10
0 -4 4 -2 13 5 21 9 11 7 12 -7 7 -17 -7 -17 -6 0 19 9 15 21 27 26 27 5 0 9
7 9 16 0 8 5 12 10 9 6 -3 10 -1 10 5 0 6 4 9 8 6 5 -3 9 1 9 9 0 8 -4 15 -9
15 -4 0 -8 5 -8 11 0 5 5 7 10 4 6 -3 10 -1 10 4 0 6 7 11 16 11 10 0 12 5 7
13 -11 17 -13 38 -3 32 5 -3 11 4 15 15 4 11 11 17 17 14 6 -4 6 2 -1 15 -7
11 -8 21 -3 21 5 0 8 11 7 25 -2 16 2 25 10 25 8 0 17 5 21 12 5 7 3 8 -7 3
-11 -7 -12 -6 -2 6 7 9 8 20 3 29 -5 8 -6 18 -3 23 9 15 9 97 0 97 -5 0 -5 6
1 13 7 8 7 18 2 27 -5 8 -5 21 1 31 6 12 5 20 -1 24 -8 5 -8 11 -1 19 6 7 8
16 4 20 -10 9 -13 37 -4 31 5 -2 8 9 7 25 -1 17 -5 30 -11 30 -7 0 -7 3 0 8
12 9 18 32 8 31 -21 -3 -31 3 -36 21 -3 11 0 20 5 20 7 0 6 5 -1 14 -9 11 -9
15 1 19 11 4 10 6 0 6 -7 1 -10 6 -6 13 4 6 3 8 -2 5 -6 -3 -16 -2 -24 4 -13
7 -13 9 0 9 13 0 13 1 0 10 -12 8 -12 10 -1 10 9 0 5 8 -10 21 -13 11 -23 27
-21 35 3 16 -22 46 -32 37 -3 -4 -6 5 -6 18 0 19 -2 21 -10 9 -8 -13 -10 -12
-11 5 -1 11 -1 24 0 28 2 13 -26 37 -34 29 -4 -4 -6 -2 -5 3 5 24 -1 37 -14
32 -9 -4 -17 2 -21 14 -4 10 -11 17 -16 13 -5 -3 -9 -2 -8 3 3 18 -2 34 -9 29
-5 -3 -16 6 -26 19 -10 14 -22 22 -27 19 -5 -3 -6 2 -3 10 5 12 -1 14 -25 11
-17 -2 -29 0 -26 5 7 11 -27 30 -55 30 -12 0 -18 5 -15 10 3 6 1 10 -5 10 -6
0 -9 4 -6 8 3 5 -1 9 -9 9 -8 0 -15 -5 -15 -10 0 -6 -11 2 -25 17 -14 15 -25
21 -25 14 0 -8 -3 -9 -8 -3 -4 6 -14 10 -22 10 -8 0 -15 6 -15 14 0 8 -8 15
-17 17 -10 1 -18 -3 -18 -9 0 -8 -3 -7 -9 1 -4 8 -12 14 -16 14 -4 0 -12 -6
-16 -14 -6 -9 -9 -9 -9 -1 0 7 -13 11 -31 11 -19 -1 -35 5 -40 14 -6 10 -19
14 -38 12 -17 -2 -33 1 -36 7 -5 7 -12 6 -21 -2 -8 -6 -14 -8 -14 -4 0 4 -8 1
-17 -6 -11 -10 -14 -10 -9 -1 5 8 0 12 -14 12 -13 0 -19 -4 -14 -12 4 -7 3 -8
-4 -4 -23 14 -51 15 -46 2 3 -7 -7 -18 -21 -24 -15 -7 -24 -8 -20 -3 6 11 -34
9 -52 -2 -5 -3 -13 -3 -17 0 -10 10 -46 11 -40 1 3 -4 0 -8 -6 -8 -6 0 -8 -5
-4 -12 5 -8 -2 -9 -24 -5 -22 5 -31 3 -29 -6 1 -6 -13 -16 -30 -21 -18 -6 -33
-16 -33 -24 0 -7 -4 -11 -9 -7 -5 3 -12 1 -16 -5 -3 -5 -11 -10 -16 -10 -6 0
-7 5 -4 10 3 6 1 10 -4 10 -6 0 -11 -4 -11 -8 0 -5 -7 -17 -16 -28 -8 -10 -13
-13 -9 -6 4 7 0 12 -10 12 -9 0 -14 4 -10 9 3 5 -4 12 -15 16 -11 4 -17 11
-14 17 5 8 1 9 -10 5 -10 -4 -15 -3 -11 3 3 6 1 10 -5 10 -6 0 -9 4 -6 9 3 5
-1 11 -9 15 -8 3 -15 0 -15 -6 0 -7 -7 -3 -15 8 -15 19 -15 19 -9 -1 5 -18 4
-18 -6 -2 -6 9 -8 22 -4 29 4 6 3 8 -3 5 -6 -4 -20 2 -32 12 -12 11 -33 18
-46 16 -14 -1 -22 2 -19 6 11 18 -7 30 -24 17 -11 -9 -14 -10 -8 -1 5 9 -1 12
-23 9 -17 -2 -28 1 -25 5 3 5 0 9 -6 9 -6 0 -9 4 -5 9 3 6 -6 8 -20 5 -16 -3
-25 0 -25 8 0 10 -2 10 -9 -1 -6 -9 -10 -10 -16 -2 -5 9 -11 9 -23 -1 -12 -10
-14 -10 -8 -1 12 21 18 101 6 83 -5 -8 -10 -10 -10 -4 0 6 3 14 7 18 12 12 12
76 -1 69 -6 -4 -5 0 2 9 9 12 10 18 2 23 -8 5 -6 14 7 28 10 11 12 17 6 13 -9
-5 -13 0 -13 15 0 12 3 20 6 16 10 -10 32 17 26 32 -3 9 -1 12 6 7 7 -4 12 -2
12 5 0 10 3 10 11 2 9 -9 18 -5 36 13 13 13 29 22 35 18 6 -4 5 3 -2 16 -11
20 -10 21 9 10 15 -7 21 -7 21 0 0 7 6 8 18 1 14 -7 19 -6 19 4 0 8 -4 12 -9
9 -4 -3 -5 2 -2 10 3 8 14 13 24 11 13 -3 17 1 13 11 -3 8 1 14 10 14 9 0 19
5 23 12 5 7 3 8 -7 3 -12 -8 -12 -6 0 8 7 9 17 14 22 11 5 -3 9 0 9 6 0 6 6 8
13 4 6 -4 4 2 -6 13 -15 18 -16 22 -3 32 8 7 20 10 26 6 6 -4 10 -3 9 2 -4 20
2 33 15 33 9 0 13 10 12 29 -1 17 1 28 5 25 4 -2 12 3 19 11 7 8 9 15 4 15 -5
0 -2 5 6 10 8 5 11 10 5 10 -5 0 -10 11 -10 25 0 14 4 25 9 25 5 0 3 6 -3 14
-13 15 1 32 18 22 5 -3 9 46 10 112 1 81 -2 112 -9 102 -8 -13 -10 -13 -10 3
0 9 -5 17 -11 17 -8 0 -8 4 0 13 8 10 7 17 -1 25 -9 9 -9 12 1 12 10 0 11 3 2
14 -9 11 -9 15 1 19 11 4 10 6 0 6 -7 1 -10 6 -7 11 5 9 -7 14 -27 11 -3 0 -4
13 -2 28 3 17 0 32 -7 37 -7 4 -9 3 -6 -3 3 -5 0 -10 -8 -10 -8 0 -12 4 -10 8
8 12 -6 39 -20 39 -9 0 -12 10 -9 33 2 17 1 26 -2 20 -8 -17 -34 9 -34 34 0
15 -2 16 -10 3 -9 -15 -11 -13 -14 13 -1 6 -10 11 -19 10 -12 0 -16 4 -13 13
5 13 -5 18 -31 15 -7 -1 -13 3 -13 9 0 5 -7 10 -17 10 -9 0 -14 3 -10 6 8 8
-18 34 -33 34 -6 0 -9 4 -6 9 4 5 -3 7 -14 4 -12 -3 -20 0 -20 6 0 7 -4 9 -10
6 -5 -3 -10 0 -10 8 0 11 -7 13 -22 9 -16 -4 -19 -2 -13 9 8 12 6 12 -8 1 -9
-8 -20 -11 -26 -8 -5 3 -12 0 -14 -6 -4 -10 -6 -10 -6 -1 -1 7 -8 10 -16 6 -9
-3 -15 -2 -14 3 5 31 -16 37 -66 18 -18 -7 -18 -6 -6 9 15 19 13 21 -8 8z"/>
<path d="M5375 3649 c-4 -6 -5 -12 -2 -15 2 -3 7 2 10 11 7 17 1 20 -8 4z"/>
</g>
</svg>
